<?xml version="1.0" encoding="UTF-8"?>
<svg width="16px" height="16px" viewBox="0 0 16 16" version="1.1" xmlns="http://www.w3.org/2000/svg" xmlns:xlink="http://www.w3.org/1999/xlink">
    <!-- Generator: Sketch 45.2 (43514) - http://www.bohemiancoding.com/sketch -->
    <title>arrow--right</title>
    <desc>Created with Sketch.</desc>
    <defs></defs>
    <g id="icons" stroke="none" stroke-width="1" fill="none" fill-rule="evenodd">
        <g id="arrow--right" fill-rule="nonzero" fill="#000000">
            <path d="M6.41421356,9 L12,9 C12.5522847,9 13,8.55228475 13,8 C13,7.44771525 12.5522847,7 12,7 L6.41421356,7 L8.70710678,4.70710678 C9.09763107,4.31658249 9.09763107,3.68341751 8.70710678,3.29289322 C8.31658249,2.90236893 7.68341751,2.90236893 7.29289322,3.29289322 L3.29289322,7.29289322 C2.90236893,7.68341751 2.90236893,8.31658249 3.29289322,8.70710678 L7.29289322,12.7071068 C7.68341751,13.0976311 8.31658249,13.0976311 8.70710678,12.7071068 C9.09763107,12.3165825 9.09763107,11.6834175 8.70710678,11.2928932 L6.41421356,9 Z" id="Combined-Shape" transform="translate(8.000000, 8.000000) scale(-1, 1) translate(-8.000000, -8.000000) "></path>
        </g>
    </g>
</svg>